# xmcd
#
# Track frame offsets:
#	150
#	19986
#	35402
#	53206
#	69943
#	93580
#	108689
#	123650
#	141358
#	152930
#	174030
#	191209
#	210554
#	227777
#	244312
#	253719
#	272566
#	288404
#
# Disc length: 4041 seconds
#
# Revision: 0
# Processed by: cddbd v1.5.2PL0 Copyright (c) Steve Scherf et al.
# Submitted via: EasyCDDAExtractor 16.0.6.1
#
DISCID=100fc712
DTITLE=Συλλογικός δίσκος - Στου τραγουδιού την όχθη 1-1
DYEAR=2011
DGENRE=Έντεχνη λαϊκή
TTITLE0=Στόκας Μπάμπης - Ανόητες αγάπες [Χάρης κ Πάνος Κατσιμίχας]
TTITLE1=Τσανακλίδου Τάνια - Οι μοίρες [Σ. Κραουνάκης-Λ. Νικολακοπούλου]
TTITLE2=Περίδης Ορφέας-Κανά Μ.-Καλημέρη Λ.-Πάντος Δ. - Φωτοβολίδα [Ορφέας Περί
TTITLE2=δης]
TTITLE3=Πέτα Ελένη - Να βάλω τα μεταξωτά [Σωκρ. Μάλαμας-Γ. Τσατσόπουλος]
TTITLE4=Συνήθεις Ύποπτοι - Βροχή μου [Χρήστος Θηβαίος]
TTITLE5=Αρβανιτάκη Ελευθερία - Ερωτικό [Ν. Ξυδάκης-Ναπ. Λαπαθιώτης]
TTITLE6=Χειμερινοί Κολυμβητές - Το πολλαπλό ου είδωλο [Αργύρης Μπακιρτζής]
TTITLE7=Λεονάρδου Σωτηρία - Αγρύπνια [Θανάσης Παπακωνσταντίνου]
TTITLE8=Ξυδάκης Νίκος - Στο εστιατόριο που τρων τα συνεργεία [Ν. Ξυδάκης-Θ. Γκ
TTITLE8=όνης]
TTITLE9=Παπάζογλου Νίκος - Υδροχόος [Β. Αλαγιάννη-Μ. Ρασούλης]
TTITLE10=Θωμαΐδης Κώστας-Μικρούτσικος Α.-Μπουλάς Σ-Μεράντζας Γ. - Πρωϊνό τσιγά
TTITLE10=ρο (Στον Μάνο Λοΐζο)[Ν. Μαυρουδής-Ά. Αλκαίος]
TTITLE11=Γιαννάτου Σαβίνα - Φεγγαράκι απάτητο [Μ. Γρηγορίου-Ρ. Παπανικόλα]
TTITLE12=Μητσιάς Μανώλης - Νύχτα μαγικιά [Μ. Θεοδωράκης-Γ. Θεοδωράκης]
TTITLE13=Κατσιμίχας Πάνος - Μιά ζωή στο ρίσκο [Φ. Πλιάτσικας/Μ. Στόκας-Μ. Ξυδο
TTITLE13=ύς]
TTITLE14=Τσαλιγοπούλου Ελένη - Να μ' αγαπάς [Γιώργος Ανδρέου]
TTITLE15=Δρογώσης Στάθης - Μην το πεις πουθενά [Στάθης Δρογώσης]
TTITLE16=Μικρές Περιπλανήσεις - Μικρές περιπλανήσεις [Ν. Αρμπιλιάς-Σ. Παπαποστ
TTITLE16=όλου]
TTITLE17=Ανδρεάτος Γεράσιμος - Στη σκέψη της τρελλής [Βαγγέλης Καρακάσης]
EXTD=
EXTT0=
EXTT1=
EXTT2=
EXTT3=
EXTT4=
EXTT5=
EXTT6=
EXTT7=
EXTT8=
EXTT9=
EXTT10=
EXTT11=
EXTT12=
EXTT13=
EXTT14=
EXTT15=
EXTT16=
EXTT17=
PLAYORDER=
